Coordinates
version=1
nRows=14
nColumns=24
inDegrees=yes

Units are S.I. units (second, meters, Newtons, ...)
Angles are in degrees.

endheader
time	pelvis_tilt	pelvis_list	pelvis_rotation	pelvis_tx	pelvis_ty	pelvis_tz	hip_flexion_r	hip_adduction_r	hip_rotation_r	knee_angle_r	ankle_angle_r	subtalar_angle_r	mtp_angle_r	hip_flexion_l	hip_adduction_l	hip_rotation_l	knee_angle_l	ankle_angle_l	subtalar_angle_l	mtp_angle_l	lumbar_extension	lumbar_bending	lumbar_rotation
      0.69133333	     -0.51533088	     -0.26238226	      2.42640304	     -0.38470714	      1.05295522	      0.31836596	     14.19601518	      2.01811209	     -2.71142721	    -27.85595052	     16.92503734	     -3.02124544	      5.63618121	     15.79604291	     -5.53747574	     -4.58134103	    -73.21266499	     10.23077712	      4.68464933	      8.79643050	    -12.78392344	      3.98739762	     -0.18714124
      0.69550000	     -0.47837512	     -0.10424113	      2.37402031	     -0.37929037	      1.05459262	      0.31839980	     13.55936202	      1.87074501	     -2.66411990	    -27.29922530	     16.88327013	     -2.95914301	      5.62601213	     16.27299245	     -5.30786084	     -4.71665099	    -72.86151916	     10.44439843	      4.98566818	      8.78925522	    -12.82264962	      3.81410872	     -0.08837134
      0.69966667	     -0.44436789	      0.04894771	      2.31789807	     -0.37385487	      1.05623077	      0.31841395	     12.91817284	      1.72615180	     -2.62058232	    -26.72369408	     16.82124031	     -2.89849366	      5.61690148	     16.73630985	     -5.08323192	     -4.86046289	    -72.43921981	     10.64232019	      5.27763498	      8.78844258	    -12.85601903	      3.64635781	      0.01299076
      0.70383333	     -0.39999764	      0.20871282	      2.25027396	     -0.36843268	      1.05784988	      0.31843311	     12.26824595	      1.57396298	     -2.57365479	    -26.14702457	     16.75967136	     -2.83652389	      5.60855240	     17.17116866	     -4.85542421	     -5.02232656	    -71.95078372	     10.83243007	      5.57229214	      8.79289141	    -12.90671458	      3.46801060	      0.12639138
      0.70800000	     -0.35131318	      0.35361742	      2.17080299	     -0.36301222	      1.05943346	      0.31846051	     11.60804743	      1.44053962	     -2.50755584	    -25.55045730	     16.70800989	     -2.78613641	      5.59906385	     17.59020318	     -4.65364601	     -5.20590144	    -71.41403401	     11.01860049	      5.85774454	      8.80432304	    -12.95855264	      3.30372005	      0.29149236
      0.71216667	     -0.30804958	      0.51477671	      2.09024283	     -0.35760289	      1.06100084	      0.31845708	     10.96224213	      1.28105501	     -2.46537980	    -24.96812012	     16.59709144	     -2.71711056	      5.59238649	     17.99568830	     -4.42572738	     -5.38780027	    -70.80180860	     11.17490388	      6.12201404	      8.81857116	    -13.01419062	      3.12765671	      0.38893621
      0.71633333	     -0.26459413	      0.68028102	      1.99608063	     -0.35218885	      1.06251429	      0.31846784	     10.31657257	      1.11661722	     -2.40934737	    -24.38226723	     16.51526506	     -2.64947742	      5.58778528	     18.38321547	     -4.20204414	     -5.59415759	    -70.13581179	     11.32376855	      6.36268371	      8.83790979	    -13.06317247	      2.94092861	      0.51052181
      0.72050000	     -0.19901824	      0.82526657	      1.89918281	     -0.34677866	      1.06402836	      0.31848928	      9.64091909	      0.97654987	     -2.35175070	    -23.77581336	     16.43334513	     -2.59557984	      5.58444232	     18.73356448	     -4.01000552	     -5.81002140	    -69.41839630	     11.46789569	      6.58049239	      8.86768275	    -13.13713368	      2.76079689	      0.67581113
      0.72466667	     -0.14710974	      0.97762315	      1.79277259	     -0.34138875	      1.06545443	      0.31850103	      8.99415216	      0.82341040	     -2.29871013	    -23.19317126	     16.33621781	     -2.53105922	      5.58325046	     19.08347040	     -3.80885874	     -6.03352689	    -68.64696914	     11.59494201	      6.77607091	      8.89967971	    -13.20114558	      2.58620316	      0.81601750
      0.72883333	     -0.09713562	      1.13159483	      1.68295085	     -0.33599978	      1.06684990	      0.31851544	      8.34974263	      0.66610533	     -2.24374434	    -22.60573879	     16.23036858	     -2.46191271	      5.58450617	     19.41780026	     -3.60819240	     -6.26151205	    -67.81788912	     11.70152352	      6.93293593	      8.93713223	    -13.26628310	      2.40090754	      0.96171123
      0.73300000	     -0.08062160	      1.29228672	      1.56385005	     -0.33062258	      1.06813044	      0.31851793	      7.75819595	      0.49548374	     -2.19566111	    -22.04802087	     16.10703514	     -2.38197169	      5.58505630	     19.77227342	     -3.39857170	     -6.49625228	    -66.93667690	     11.79023940	      7.07477394	      8.96271092	    -13.28813733	      2.22282666	      1.06254939
      0.73716667	     -0.02332305	      1.43308435	      1.44317678	     -0.32526910	      1.06939854	      0.31854967	      7.11724557	      0.35112812	     -2.13425403	    -21.47165816	     16.02751179	     -2.31957068	      5.59104914	     20.07243612	     -3.22202824	     -6.73697428	    -66.01935093	     11.87374676	      7.17649032	      9.00469300	    -13.36875317	      2.03852357	      1.24889728
      0.74133333	      0.00095252	      1.59296673	      1.31311013	     -0.31991654	      1.07056992	      0.31857410	      6.52738717	      0.17908655	     -2.08339837	    -20.92366369	     15.93375326	     -2.24172557	      5.59804082	     20.38671242	     -3.02148232	     -6.98436219	    -65.04138222	     11.93121502	      7.25031381	      9.04301815	    -13.40128091	      1.84201244	      1.39258620
      0.74550000	      0.02408776	      1.73099496	      1.18482604	     -0.31458957	      1.07165782	      0.31859394	      5.94576790	      0.02964400	     -2.03274433	    -20.38395896	     15.83691910	     -2.16960801	      5.60575319	     20.69397188	     -2.84757504	     -7.22342216	    -64.02913059	     11.98007908	      7.30948098	      9.07899846	    -13.43552426	      1.67032897	      1.53595751
